# xmcd
#
# Track frame offsets:
#	150
#	16230
#	30522
#	46042
#	65142
#	83470
#	97665
#	113885
#	123775
#	139587
#	152615
#	169202
#	181897
#	199972
#	215930
#	229482
#
# Disc length: 3300 seconds
#
# Revision: 1
# Processed by: cddbd v1.5.1PL2 Copyright (c) Steve Scherf et al.
# Submitted via: audiograbber 1.83.01
#
DISCID=cf0ce210
DTITLE=Angel Hartley - Steppin' out om faith
DYEAR=1900
DGENRE=Country
TTITLE0=You said it
TTITLE1=Take it from me
TTITLE2=Hollywood cowgirl
TTITLE3=Steppin' out on faith
TTITLE4=What does she have
TTITLE5=Over you as I'll ever get
TTITLE6=I found myself alone
TTITLE7=Is we in love or is we ain't
TTITLE8=Go esay on me
TTITLE9=Dangerous territory
TTITLE10=We should've talked about it
TTITLE11=War paint
TTITLE12=You wish
TTITLE13=It's over
TTITLE14=Have a heart
TTITLE15=Guardian angel
EXTD=
EXTT0=
EXTT1=
EXTT2=
EXTT3=
EXTT4=
EXTT5=
EXTT6=
EXTT7=
EXTT8=
EXTT9=
EXTT10=
EXTT11=
EXTT12=
EXTT13=
EXTT14=
EXTT15=
PLAYORDER=
